<mxfile host="65bd71144e">
    <diagram id="80LHb3c39gdCs005z2w7" name="Page-1">
        <mxGraphModel dx="1216" dy="784" grid="1" gridSize="10" guides="1" tooltips="1" connect="1" arrows="1" fold="1" page="1" pageScale="1" pageWidth="850" pageHeight="1100" math="0" shadow="0">
            <root>
                <mxCell id="0"/>
                <mxCell id="1" parent="0"/>
                <mxCell id="2" value="" style="rounded=0;whiteSpace=wrap;html=1;fontFamily=Tahoma;" vertex="1" parent="1">
                    <mxGeometry width="850" height="60" as="geometry"/>
                </mxCell>
                <mxCell id="3" value="" style="shape=link;html=1;" edge="1" parent="1">
                    <mxGeometry width="100" relative="1" as="geometry">
                        <mxPoint x="408" y="40" as="sourcePoint"/>
                        <mxPoint x="508" y="40" as="targetPoint"/>
                    </mxGeometry>
                </mxCell>
                <mxCell id="47" value="About me" style="edgeLabel;html=1;align=center;verticalAlign=middle;resizable=0;points=[];fontFamily=Tahoma;" vertex="1" connectable="0" parent="3">
                    <mxGeometry x="-0.32" y="7" relative="1" as="geometry">
                        <mxPoint x="18" y="-3" as="offset"/>
                    </mxGeometry>
                </mxCell>
                <mxCell id="4" value="" style="shape=link;html=1;" edge="1" parent="1">
                    <mxGeometry width="100" relative="1" as="geometry">
                        <mxPoint x="518" y="40" as="sourcePoint"/>
                        <mxPoint x="618" y="40" as="targetPoint"/>
                    </mxGeometry>
                </mxCell>
                <mxCell id="48" value="Work" style="edgeLabel;html=1;align=center;verticalAlign=middle;resizable=0;points=[];fontFamily=Tahoma;" vertex="1" connectable="0" parent="4">
                    <mxGeometry x="-0.72" y="-3" relative="1" as="geometry">
                        <mxPoint x="38" y="-13" as="offset"/>
                    </mxGeometry>
                </mxCell>
                <mxCell id="5" value="" style="shape=link;html=1;" edge="1" parent="1">
                    <mxGeometry width="100" relative="1" as="geometry">
                        <mxPoint x="628" y="40" as="sourcePoint"/>
                        <mxPoint x="728" y="40" as="targetPoint"/>
                    </mxGeometry>
                </mxCell>
                <mxCell id="6" value="" style="shape=link;html=1;" edge="1" parent="1">
                    <mxGeometry width="100" relative="1" as="geometry">
                        <mxPoint x="738" y="40" as="sourcePoint"/>
                        <mxPoint x="838" y="40" as="targetPoint"/>
                    </mxGeometry>
                </mxCell>
                <mxCell id="7" value="&lt;h1&gt;Hafsah Nasreen&lt;/h1&gt;" style="text;html=1;strokeColor=none;fillColor=none;spacing=5;spacingTop=-20;whiteSpace=wrap;overflow=hidden;rounded=0;fontFamily=Tahoma;" vertex="1" parent="1">
                    <mxGeometry x="10" y="10" width="240" height="50" as="geometry"/>
                </mxCell>
                <mxCell id="10" value="" style="rounded=0;whiteSpace=wrap;html=1;fontFamily=Tahoma;" vertex="1" parent="1">
                    <mxGeometry y="60" width="850" height="110" as="geometry"/>
                </mxCell>
                <mxCell id="11" value="&lt;h1&gt;Could die of awkward interactions.&lt;/h1&gt;" style="text;html=1;strokeColor=none;fillColor=none;spacing=5;spacingTop=-20;whiteSpace=wrap;overflow=hidden;rounded=0;fontFamily=Tahoma;" vertex="1" parent="1">
                    <mxGeometry x="410" y="110" width="430" height="50" as="geometry"/>
                </mxCell>
                <mxCell id="22" value="MAIN" style="shape=table;startSize=30;container=1;collapsible=0;childLayout=tableLayout;fixedRows=1;rowLines=0;fontStyle=1;fontFamily=Tahoma;" vertex="1" parent="1">
                    <mxGeometry y="180" width="850" height="550" as="geometry"/>
                </mxCell>
                <mxCell id="23" value="" style="shape=tableRow;horizontal=0;startSize=0;swimlaneHead=0;swimlaneBody=0;top=0;left=0;bottom=0;right=0;collapsible=0;dropTarget=0;fillColor=none;points=[[0,0.5],[1,0.5]];portConstraint=eastwest;fontFamily=Tahoma;" vertex="1" parent="22">
                    <mxGeometry y="30" width="850" height="40" as="geometry"/>
                </mxCell>
                <mxCell id="24" value="ABOUT ME&lt;span style=&quot;white-space: pre;&quot;&gt;&#9;&lt;/span&gt;" style="shape=partialRectangle;html=1;whiteSpace=wrap;connectable=0;fillColor=none;top=0;left=0;bottom=0;right=0;overflow=hidden;pointerEvents=1;fontFamily=Tahoma;" vertex="1" parent="23">
                    <mxGeometry width="180" height="40" as="geometry">
                        <mxRectangle width="180" height="40" as="alternateBounds"/>
                    </mxGeometry>
                </mxCell>
                <mxCell id="25" value="" style="shape=partialRectangle;html=1;whiteSpace=wrap;connectable=0;fillColor=none;top=0;left=0;bottom=0;right=0;align=left;spacingLeft=6;overflow=hidden;fontFamily=Tahoma;" vertex="1" parent="23">
                    <mxGeometry x="180" width="670" height="40" as="geometry">
                        <mxRectangle width="670" height="40" as="alternateBounds"/>
                    </mxGeometry>
                </mxCell>
                <mxCell id="26" value="" style="shape=tableRow;horizontal=0;startSize=0;swimlaneHead=0;swimlaneBody=0;top=0;left=0;bottom=0;right=0;collapsible=0;dropTarget=0;fillColor=none;points=[[0,0.5],[1,0.5]];portConstraint=eastwest;fontFamily=Tahoma;" vertex="1" parent="22">
                    <mxGeometry y="70" width="850" height="30" as="geometry"/>
                </mxCell>
                <mxCell id="27" value="WORK" style="shape=partialRectangle;html=1;whiteSpace=wrap;connectable=0;fillColor=none;top=0;left=0;bottom=0;right=0;overflow=hidden;fontFamily=Tahoma;" vertex="1" parent="26">
                    <mxGeometry width="180" height="30" as="geometry">
                        <mxRectangle width="180" height="30" as="alternateBounds"/>
                    </mxGeometry>
                </mxCell>
                <mxCell id="28" value="" style="shape=partialRectangle;html=1;whiteSpace=wrap;connectable=0;fillColor=none;top=0;left=0;bottom=0;right=0;align=left;spacingLeft=6;overflow=hidden;fontFamily=Tahoma;" vertex="1" parent="26">
                    <mxGeometry x="180" width="670" height="30" as="geometry">
                        <mxRectangle width="670" height="30" as="alternateBounds"/>
                    </mxGeometry>
                </mxCell>
                <mxCell id="29" value="" style="shape=tableRow;horizontal=0;startSize=0;swimlaneHead=0;swimlaneBody=0;top=0;left=0;bottom=0;right=0;collapsible=0;dropTarget=0;fillColor=none;points=[[0,0.5],[1,0.5]];portConstraint=eastwest;fontFamily=Tahoma;movable=1;resizable=1;rotatable=1;deletable=1;editable=1;connectable=1;" vertex="1" parent="22">
                    <mxGeometry y="100" width="850" height="30" as="geometry"/>
                </mxCell>
                <mxCell id="30" value="Contact me" style="shape=partialRectangle;html=1;whiteSpace=wrap;connectable=0;fillColor=none;top=0;left=0;bottom=0;right=0;overflow=hidden;fontFamily=Tahoma;movable=0;resizable=0;rotatable=0;deletable=0;editable=0;" vertex="1" parent="29">
                    <mxGeometry width="180" height="30" as="geometry">
                        <mxRectangle width="180" height="30" as="alternateBounds"/>
                    </mxGeometry>
                </mxCell>
                <mxCell id="31" value="" style="shape=partialRectangle;html=1;whiteSpace=wrap;connectable=0;fillColor=none;top=0;left=0;bottom=0;right=0;align=left;spacingLeft=6;overflow=hidden;fontFamily=Tahoma;" vertex="1" parent="29">
                    <mxGeometry x="180" width="670" height="30" as="geometry">
                        <mxRectangle width="670" height="30" as="alternateBounds"/>
                    </mxGeometry>
                </mxCell>
                <mxCell id="33" value="" style="line;strokeWidth=4;direction=south;html=1;perimeter=backbonePerimeter;points=[];outlineConnect=0;fontFamily=Tahoma;" vertex="1" parent="1">
                    <mxGeometry x="177" y="210" width="10" height="510" as="geometry"/>
                </mxCell>
                <mxCell id="49" value="Contact Me" style="edgeLabel;html=1;align=center;verticalAlign=middle;resizable=0;points=[];fontFamily=Tahoma;" vertex="1" connectable="0" parent="1">
                    <mxGeometry x="670" y="40" as="geometry">
                        <mxPoint x="10" y="-12" as="offset"/>
                    </mxGeometry>
                </mxCell>
                <mxCell id="50" value="Resume" style="edgeLabel;html=1;align=center;verticalAlign=middle;resizable=0;points=[];fontFamily=Tahoma;" vertex="1" connectable="0" parent="1">
                    <mxGeometry x="794" y="34" as="geometry">
                        <mxPoint x="-14" y="-6" as="offset"/>
                    </mxGeometry>
                </mxCell>
            </root>
        </mxGraphModel>
    </diagram>
</mxfile>